<?xml version="1.0" encoding="utf-8"?>
<!-- Generator: Adobe Illustrator 24.3.0, SVG Export Plug-In . SVG Version: 6.00 Build 0)  -->
<svg version="1.1" id="Layer_1" xmlns="http://www.w3.org/2000/svg" xmlns:xlink="http://www.w3.org/1999/xlink" x="0px" y="0px"
	 viewBox="0 0 720.03 603.15" style="enable-background:new 0 0 720.03 603.15;" xml:space="preserve">
<style type="text/css">
	.st0{fill-rule:evenodd;clip-rule:evenodd;fill:url(#SVGID_1_);}
	.st1{fill-rule:evenodd;clip-rule:evenodd;fill:url(#SVGID_2_);}
	.st2{fill-rule:evenodd;clip-rule:evenodd;fill:url(#SVGID_3_);}
	.st3{fill-rule:evenodd;clip-rule:evenodd;fill:url(#SVGID_4_);}
	.st4{fill-rule:evenodd;clip-rule:evenodd;fill:url(#SVGID_5_);}
	.st5{fill-rule:evenodd;clip-rule:evenodd;fill:url(#SVGID_6_);}
	.st6{fill-rule:evenodd;clip-rule:evenodd;fill:url(#SVGID_7_);}
	.st7{fill-rule:evenodd;clip-rule:evenodd;fill:url(#SVGID_8_);}
	.st8{fill-rule:evenodd;clip-rule:evenodd;fill:url(#SVGID_9_);}
	.st9{fill-rule:evenodd;clip-rule:evenodd;fill:url(#SVGID_10_);}
	.st10{fill-rule:evenodd;clip-rule:evenodd;fill:url(#SVGID_11_);}
	.st11{fill-rule:evenodd;clip-rule:evenodd;fill:url(#SVGID_12_);}
	.st12{fill-rule:evenodd;clip-rule:evenodd;fill:url(#SVGID_13_);}
	.st13{fill-rule:evenodd;clip-rule:evenodd;fill:url(#SVGID_14_);}
	.st14{fill-rule:evenodd;clip-rule:evenodd;fill:url(#SVGID_15_);}
	.st15{fill:#FFFFFF;}
</style>
<g>
	<radialGradient id="SVGID_1_" cx="883.133" cy="247.331" r="609.5818" gradientUnits="userSpaceOnUse">
		<stop  offset="0" style="stop-color:#FFFFFF"/>
		<stop  offset="0.5" style="stop-color:#E81856"/>
		<stop  offset="1" style="stop-color:#C4272E"/>
	</radialGradient>
	<path class="st0" d="M529.24,167.07c12.75-0.38,23.84-5.66,33.31-15.79c-77.91-4.31-61.43-116.61-163.14-117.69
		C468.12,45.49,479.9,110.42,529.24,167.07L529.24,167.07z"/>
	<radialGradient id="SVGID_2_" cx="844.6376" cy="134.1122" r="613.0024" gradientUnits="userSpaceOnUse">
		<stop  offset="0" style="stop-color:#FFFFFF"/>
		<stop  offset="0.5" style="stop-color:#E81856"/>
		<stop  offset="1" style="stop-color:#C4272E"/>
	</radialGradient>
	<path class="st1" d="M529.24,167.07C479.9,110.42,468.12,45.49,399.41,33.59c12.78,18.56,11.67,39.97,0.92,59.43
		c2.27,7.78,3.85,15.56,4.58,23.3c62.36,15.33,131.29,147.89,227.65,71.13C577.5,208.36,548.91,193.99,529.24,167.07L529.24,167.07z
		"/>
	<g>
		<radialGradient id="SVGID_3_" cx="937.0261" cy="226.503" r="809.7534" gradientUnits="userSpaceOnUse">
			<stop  offset="0" style="stop-color:#FFFFFF"/>
			<stop  offset="0.5" style="stop-color:#E81856"/>
			<stop  offset="1" style="stop-color:#C4272E"/>
		</radialGradient>
		<path class="st2" d="M632.57,187.45c-96.36,76.75-165.3-55.81-227.65-71.13c0.5,5.5,0.54,10.97,0.12,16.37
			c4.05,0.08,8.21-0.24,12.1-3.08c-4.97,6.39-11.29,6.35-14.48,11.44c-4.74,7.51,11.67,27.04,17.6,37.6
			c3.81,6.74-13.48,5.04-15.71,10.08c-1.77,3.89,3.58,6.05,2.47,10.13c-0.58,2.15-4.12,2.69-4.62,4.85
			c-0.54,2.16,2.81,4.35,1.92,6.4c-1.5,3.55-6.74,2.19-7.43,4.89c-1.31,5.08,5.7,12.06,3.66,16.87c-1.77,4.08-4.97,6.13-9.13,7.01
			c63.66,3.12,150.43,49.68,217.1-11.6C617.05,215.68,624.86,202.39,632.57,187.45L632.57,187.45z"/>
		<radialGradient id="SVGID_4_" cx="884.0462" cy="242.8085" r="603.2947" gradientUnits="userSpaceOnUse">
			<stop  offset="0" style="stop-color:#FFFFFF"/>
			<stop  offset="0.5" style="stop-color:#E81856"/>
			<stop  offset="1" style="stop-color:#C4272E"/>
		</radialGradient>
		<path class="st3" d="M409.46,135.69c61.66,20.03,137.03,131.45,223.11,51.76c-96.36,76.75-165.3-55.81-227.65-71.13
			c0.5,5.5,0.54,10.97,0.12,16.37c4.05,0.08,8.21-0.24,12.1-3.08C414.7,132.72,411.96,134.3,409.46,135.69L409.46,135.69z"/>
	</g>
	<g>
		<radialGradient id="SVGID_5_" cx="827.8906" cy="289.9092" r="563.399" gradientUnits="userSpaceOnUse">
			<stop  offset="0" style="stop-color:#FFFFFF"/>
			<stop  offset="0.5" style="stop-color:#E81856"/>
			<stop  offset="1" style="stop-color:#C4272E"/>
		</radialGradient>
		<path class="st4" d="M608.5,227.27c-66.67,61.28-153.44,14.71-217.1,11.6c-3,0.66-6.47,0.69-10.29,0.46
			c-86.38-5.08-67.59,61.5-4.39,88.23c-42.48-30.85-2.81-70.94,96.9-44.25C542.37,286.27,579.54,266.63,608.5,227.27L608.5,227.27z"
			/>
		<radialGradient id="SVGID_6_" cx="914.8441" cy="278.1296" r="624.9899" gradientUnits="userSpaceOnUse">
			<stop  offset="0" style="stop-color:#FFFFFF"/>
			<stop  offset="0.5" style="stop-color:#E81856"/>
			<stop  offset="1" style="stop-color:#C4272E"/>
		</radialGradient>
		<path class="st5" d="M608.5,227.27c-66.67,61.28-153.44,14.71-217.1,11.6c-3,0.66-6.47,0.69-10.29,0.46
			c-50.76-2.97-65.2,18.79-55.65,42.63c1.66-36.35,74.64-31.97,101.94-27.88C486.91,262.93,558.93,284.73,608.5,227.27L608.5,227.27
			z"/>
	</g>
	<g>
		<radialGradient id="SVGID_7_" cx="761.759" cy="319.8001" r="442.9224" gradientUnits="userSpaceOnUse">
			<stop  offset="0" style="stop-color:#FFFFFF"/>
			<stop  offset="0.5" style="stop-color:#E81856"/>
			<stop  offset="1" style="stop-color:#C4272E"/>
		</radialGradient>
		<path class="st6" d="M540.25,297.98c-22.8-0.04-45.1-4.32-66.62-14.67c-99.71-26.69-139.38,13.4-96.9,44.25
			C417.97,345.01,478.13,345.47,540.25,297.98L540.25,297.98z"/>
		<radialGradient id="SVGID_8_" cx="767.2006" cy="315.273" r="413.0352" gradientUnits="userSpaceOnUse">
			<stop  offset="0" style="stop-color:#FFFFFF"/>
			<stop  offset="0.5" style="stop-color:#E81856"/>
			<stop  offset="1" style="stop-color:#C4272E"/>
		</radialGradient>
		<path class="st7" d="M390.71,332.57c-37.75-24.15-14.41-59.74,82.92-49.26c-99.71-26.69-139.38,13.4-96.9,44.25
			C381.19,329.44,385.85,331.1,390.71,332.57L390.71,332.57z"/>
	</g>
	<g>
		<radialGradient id="SVGID_9_" cx="439.2992" cy="404.9394" r="350.8266" gradientUnits="userSpaceOnUse">
			<stop  offset="0" style="stop-color:#FFFFFF"/>
			<stop  offset="0.5" style="stop-color:#E81856"/>
			<stop  offset="1" style="stop-color:#C4272E"/>
		</radialGradient>
		<path class="st8" d="M298.19,340.81c-81.15-55.18-48.68-109.22-0.46-153.98c-73.75,48.92-94.51,87.39-78.37,118.63
			C240.23,325.94,267.08,339.46,298.19,340.81L298.19,340.81z"/>
		<radialGradient id="SVGID_10_" cx="406.7007" cy="374.147" r="254.0676" gradientUnits="userSpaceOnUse">
			<stop  offset="0" style="stop-color:#FFFFFF"/>
			<stop  offset="0.5" style="stop-color:#E81856"/>
			<stop  offset="1" style="stop-color:#C4272E"/>
		</radialGradient>
		<path class="st9" d="M219.36,305.45c-5.13-21.76,7.16-46.76,38.28-69.67c8.9-17.18,23.57-33.62,40.09-48.96
			C223.98,235.75,203.22,274.22,219.36,305.45L219.36,305.45z"/>
	</g>
	<g>
		<radialGradient id="SVGID_11_" cx="23.5551" cy="292.6225" r="612.0002" gradientUnits="userSpaceOnUse">
			<stop  offset="0" style="stop-color:#FFFFFF"/>
			<stop  offset="0.5" style="stop-color:#E81856"/>
			<stop  offset="1" style="stop-color:#C4272E"/>
		</radialGradient>
		<path class="st10" d="M171.53,201.39c4.31-84.15,235.16-110.46,208.55-186.1C363.86,4.93,341.76-0.92,316.45,0.12
			c41.44,18.68,11.67,46.41-53.84,61.93C192.4,82.62,166.25,142.38,171.53,201.39L171.53,201.39z"/>
		<radialGradient id="SVGID_12_" cx="-31.6934" cy="367.8" r="649.9011" gradientUnits="userSpaceOnUse">
			<stop  offset="0" style="stop-color:#FFFFFF"/>
			<stop  offset="0.5" style="stop-color:#E81856"/>
			<stop  offset="1" style="stop-color:#C4272E"/>
		</radialGradient>
		<path class="st11" d="M380.08,15.29c10.55,67.55-147.7,80.88-204.77,134.99c-4.16,16.45-5.32,33.81-3.78,51.11
			C175.84,117.24,406.69,90.93,380.08,15.29L380.08,15.29z"/>
	</g>
	<g>
		<radialGradient id="SVGID_13_" cx="-8.1517" cy="159.4816" r="485.9929" gradientUnits="userSpaceOnUse">
			<stop  offset="0" style="stop-color:#FFFFFF"/>
			<stop  offset="0.5" style="stop-color:#E81856"/>
			<stop  offset="1" style="stop-color:#C4272E"/>
		</radialGradient>
		<path class="st12" d="M262.61,62.05c65.51-15.52,95.28-43.25,53.84-61.93c-14.68,0.62-30.39,3.5-46.68,9.17
			c-33.24,11.55-62.35,39.21-81.26,74.6C210.08,72.14,235.54,63.24,262.61,62.05L262.61,62.05z"/>
		<radialGradient id="SVGID_14_" cx="50.7221" cy="154.0427" r="373.0762" gradientUnits="userSpaceOnUse">
			<stop  offset="0" style="stop-color:#FFFFFF"/>
			<stop  offset="0.5" style="stop-color:#E81856"/>
			<stop  offset="1" style="stop-color:#C4272E"/>
		</radialGradient>
		<path class="st13" d="M262.61,62.05c65.51-15.52,95.28-43.25,53.84-61.93c-3.54,0.16-7.12,0.43-10.75,0.85
			C338.41,14.83,321,39.71,262.61,62.05L262.61,62.05z"/>
	</g>
	<g>
		<radialGradient id="SVGID_15_" cx="29.897" cy="368.7102" r="790.0082" gradientUnits="userSpaceOnUse">
			<stop  offset="0" style="stop-color:#FFFFFF"/>
			<stop  offset="0.5" style="stop-color:#E81856"/>
			<stop  offset="1" style="stop-color:#C4272E"/>
		</radialGradient>
		<path class="st14" d="M354.77,228.54c-64.66-14.9,13.59-93.97,32.35-159.21c1.31,13.45-1.73,31.78-7.35,49.49
			c5.85-5.59,11.48-11.71,16.45-19.07c12.79-18.87,15.17-37.32,9.82-53.11c-4.24-12.48-13.32-23.3-25.96-31.35
			c26.61,75.64-204.24,101.95-208.55,186.1c3.51,38.86,20.64,77.38,47.84,104.06c-16.14-31.23,4.62-69.7,78.37-118.63
			C300.97,221.53,324.93,242.25,354.77,228.54L354.77,228.54z"/>
	</g>
</g>
<g>
	<path class="st15" d="M40.7,509.41c6.72,0.61,12.01-1.12,15.88-5.19c2.64-3.05,6.21-7.63,10.69-13.74l17.71-25.34
		c2.64-3.66,4.99-7.22,7.02-10.69c2.64-4.47,5.39-9.77,8.24-15.88c5.7-11.19,10.18-22.18,13.43-32.98c0.61-1.63,1.02-3.05,1.22-4.27
		c0.2-1.22,0.41-2.24,0.61-3.05c0-0.41-0.1-0.96-0.31-1.68c-0.21-0.71-0.41-1.27-0.61-1.68c-0.82-1.42-1.94-2.85-3.36-4.27
		c-1.83-1.83-3.66-2.75-5.5-2.75h-0.92l-3.97,0.92c-0.21,0-0.46,0-0.76,0s-0.46-0.2-0.46-0.61c-0.21-1.02-0.82-1.22-1.83-0.61
		c-2.44,1.83-4.27,4.17-5.5,7.02c-2.04,4.07-4.27,8.75-6.72,14.04c-4.27,9.16-8.85,18.32-13.74,27.48
		c-5.09,9.37-8.45,16.18-10.08,20.46c-2.65,6.52-5.4,12.52-8.24,18.01c-3.05,5.91-7.23,12.82-12.52,20.76
		c-1.42,1.83-2.75,2.85-3.97,3.05c-1.63,0.21-2.64,1.33-3.05,3.36c-0.41,1.63-0.61,2.85-0.61,3.66c-0.41,1.43-0.41,2.39,0,2.9
		c0.41,0.51,1.33,0.76,2.75,0.76C38.16,509.1,39.69,509.21,40.7,509.41z"/>
	<path class="st15" d="M493.8,460.25c-0.41-0.61-1.33-0.71-2.75-0.31l-9.46,4.27c-2.65,1.22-6.26,3.26-10.84,6.11
		c-4.58,2.85-9.31,5.8-14.2,8.85l3.36-10.99l0.92-5.19c0.61-3.05-0.1-5.6-2.14-7.63c-1.43-1.42-2.85-2.14-4.28-2.14h-0.92
		c-0.21,0.21-0.71,0.3-1.53,0.3c-1.43-0.61-2.55-0.1-3.36,1.53c-2.04,2.65-3.77,5.29-5.19,7.94c-1.83,3.87-5.19,6.82-10.08,8.85
		c-0.41,0.41-0.72,0.61-0.92,0.61h-1.22v-0.92l0.92-1.83l3.66-8.85c0.41-1.22,0.61-2.14,0.61-2.75c0-1.02-0.61-2.14-1.83-3.36
		c-0.41-0.41-0.82-1.02-1.22-1.83c-1.83-2.85-4.48-4.27-7.94-4.27h-0.92c-1.83,0.41-3.16,0.3-3.97-0.31c-0.61-0.61-1.43-0.61-2.44,0
		c-1.43,1.02-2.24,1.63-2.44,1.83c-3.46,2.85-5.7,6.82-6.72,11.91c-0.81,4.07-1.22,7.02-1.22,8.85v0.61
		c0.21,1.17,0.6,2.14,1.15,2.92l-5.11,6.54c-4.28,4.48-8.86,8.35-13.74,11.6l-1.22,0.31l-1.22,0.61c-0.61,0.41-2.09,1.02-4.43,1.83
		c-2.34,0.82-4.43,1.22-6.26,1.22c-2.24,0-3.56-0.92-3.97-2.75c0-0.41,0-1.37,0-2.9c0-1.53,0.2-2.9,0.61-4.12
		c1.83-6.11,3.46-10.58,4.89-13.43c1.02-1.83,2.14-4.17,3.36-7.02l7.33-14.66c0.61-1.22,1.53-3,2.75-5.34
		c1.22-2.34,2.44-4.22,3.66-5.65c0-0.41,0.1-0.71,0.3-0.92c0.2-0.41,0.61-1.07,1.22-1.98c0.61-0.92,1.02-1.58,1.22-1.99l0.3-0.61
		c2.85,0.41,6.92,0.82,12.21,1.22c1.83,0.21,4.68,0.3,8.55,0.3c1.22,0,1.83-0.3,1.83-0.92l-0.3-0.92c-0.41-0.61-1.12-1.17-2.14-1.68
		c-1.02-0.51-2.14-0.86-3.36-1.07l-14.35-1.53c2.24-3.86,4.07-7.48,5.5-10.84c1.42-3.36,1.63-5.04,0.61-5.04
		c-0.41,0.21-0.87,0.26-1.37,0.15c-0.51-0.1-0.97-0.15-1.38-0.15l-1.22-1.53l-0.92-0.92c-1.43-1.83-3.26-2.75-5.5-2.75
		c-1.02,0-1.83,0.1-2.44,0.31c-0.82,0.21-1.73,0.21-2.75,0c-0.61-0.41-1.43-0.31-2.44,0.3l-3.05,3.36c-2.85,3.66-4.69,6.31-5.5,7.94
		c-1.02,1.43-2.34,3.56-3.97,6.41l-14.66-1.22c-2.04-0.2-4.89-0.31-8.55-0.31c-1.22,0-1.83,0.31-1.83,0.92l0.31,0.92
		c0,0.21,0.1,0.61,0.31,1.22c0.21,0.61,0.92,1.02,2.14,1.22l19.54,2.14h0.3c-1.02,2.04-2.04,4.27-3.05,6.72
		c-1.02,2.44-1.83,4.48-2.44,6.11c0,0.41-0.21,1.02-0.61,1.83v0.92l-5.13,15.64c-0.55,0.75-1.12,1.52-1.74,2.38
		c-3.56,4.88-7.28,9.26-11.14,13.13c-3.66,3.26-5.91,5.09-6.72,5.5c-0.21,0.21-0.56,0.56-1.07,1.07c-0.51,0.51-1.17,0.76-1.98,0.76
		h-0.61v-3.97c0-1.22,0.31-2.24,0.92-3.05c0.81-1.63,1.47-3.46,1.98-5.5c0.51-2.03,0.86-3.46,1.07-4.27l2.44-7.63
		c0.81-2.24,1.42-4.99,1.83-8.24c0.2-1.42-0.05-2.6-0.76-3.51c-0.72-0.92-1.78-1.47-3.21-1.68c-2.04,0-3.56,0.72-4.58,2.14
		c-1.43,2.24-4.99,6.41-10.69,12.52l-4.89,5.19l-8.24,7.94l-1.53,0.92c-0.21,0.21-0.51,0.21-0.92,0v-0.31l0.61-2.44
		c0.61-2.24,2.34-7.33,5.19-15.27c0.61-2.24,0.92-4.27,0.92-6.11c0.2-0.81,0.1-1.63-0.31-2.44c-1.22-1.83-2.65-3.56-4.27-5.19
		c-1.02-1.02-2.44-1.53-4.27-1.53h-1.53l-5.5-0.31c-0.41,0-1.37,0.05-2.9,0.15c-1.53,0.11-2.7,0.56-3.51,1.37
		c-0.82,0.82-1.83,3.26-3.05,7.33c-0.63,2.11-1.15,3.86-1.57,5.26c-7.6,4.01-14.51,8.36-20.72,13.06l-3.05,2.75
		c-0.82,0.41-1.43,0.31-1.83-0.3c-0.61-1.22-1.02-1.93-1.22-2.14c-1.22-1.22-2.14-1.93-2.75-2.14c-2.24-0.81-4.17-0.61-5.8,0.61
		c-3.66,2.24-8.55,4.07-14.66,5.5c-1.43,0.21-2.14-0.41-2.14-1.83c0-1.22,0.1-2.14,0.31-2.75c0.81-3.05,2.54-5.9,5.19-8.55
		c0.41-0.41,1.12-1.12,2.14-2.14c1.02-1.02,1.93-1.53,2.75-1.53c1.02,0,2.75,1.12,5.19,3.36l3.36,3.05
		c1.02,1.02,2.03,1.22,3.05,0.61c1.83-0.61,2.75-2.03,2.75-4.28c0-1.22-0.21-2.03-0.61-2.44c-3.05-4.88-7.13-7.94-12.21-9.16
		c-3.05-0.61-6.21-0.92-9.47-0.92c-2.65,0-5.6,0.92-8.85,2.75c-5.73,3.46-9.57,8.15-11.55,14.05c-1.04,1.06-2.22,2.17-3.56,3.35
		c-4.17,3.66-7.69,6.41-10.53,8.24c-2.04,1.22-5.5,2.75-10.38,4.58c-2.44,0.41-4.17,0.61-5.19,0.61h-1.83
		c-0.61-0.2-1.02-0.46-1.22-0.76c-0.21-0.31-0.21-0.76,0-1.37c0.2-2.85,0.46-4.88,0.76-6.11c0.31-1.22,1.17-3.05,2.6-5.5l5.8-4.27
		l5.5-3.66c1.83-1.22,3.31-3.05,4.43-5.5c1.12-2.44,1.98-4.17,2.6-5.19c0-0.2,0.1-0.51,0.31-0.92c0.2-0.41,0.31-0.81,0.31-1.22
		c0.41-4.47-1.12-7.12-4.58-7.94c-2.04-0.41-3.56-0.61-4.58-0.61c-13.03,0-21.98,4.07-26.87,12.21c-1.87,3.22-3.47,6.67-4.8,10.36
		l-10.15,4.9c-1.22,0.61-2.95,1.43-5.19,2.44c-2.24,1.02-5.3,2.44-9.16,4.28l-5.8,2.75c-0.21,0.21-0.41,0.31-0.61,0.31
		c-0.21,0-0.31-0.1-0.31-0.31c0-0.2-0.05-0.35-0.15-0.46c-0.1-0.1-0.05-0.25,0.15-0.46l3.05-8.55c0.61-2.24,0.92-4.27,0.92-6.11
		c0-2.24-0.41-4.17-1.22-5.8c-0.61-1.42-0.87-2.29-0.76-2.6c0.1-0.31,0.76-0.86,1.98-1.68l3.97-2.44c9.16-5.5,17.1-11.5,23.82-18.01
		c8.14-8.14,14.35-16.08,18.62-23.82c4.68-8.55,7.43-15.88,8.24-21.98c0.2-1.02,0.31-2.64,0.31-4.88c0-5.9-1.94-10.89-5.8-14.96
		l-2.44-2.75c-4.07-5.7-10.18-9.87-18.32-12.52c-3.46-1.22-8.75-2.24-15.88-3.05c-3.05-0.41-7.74-0.61-14.04-0.61
		c-7.13,0-13.64,0.41-19.54,1.22c-17.3,2.85-33.39,6.92-48.24,12.21c-15.47,5.7-28.09,11.71-37.86,18.01
		c-9.77,5.7-18.42,12.82-25.95,21.37c-6.11,6.92-9.77,15.47-10.99,25.65c-0.41,4.48,0.51,7.94,2.75,10.38
		c0.61,0.61,1.48,1.27,2.6,1.98c1.12,0.72,2.19,1.27,3.21,1.68c3.05,0.82,5.6-0.51,7.63-3.97c1.22-2.03,2.04-3.56,2.44-4.58
		c5.7-11.4,13.13-20.76,22.29-28.09c7.53-6.31,14.55-11.09,21.07-14.35c16.49-9.16,35.72-16.59,57.71-22.29
		c10.79-2.44,20.66-3.76,29.62-3.97c6.51,0,12.21,2.14,17.1,6.41c3.66,3.46,5.5,7.33,5.5,11.6c0,1.02-0.21,2.55-0.61,4.58
		c-0.21,1.43-0.72,2.85-1.53,4.27c-3.46,8.35-9.16,17.51-17.1,27.48c-5.3,6.92-13.54,15.17-24.73,24.73
		c-4.07,3.26-8.24,5.91-12.52,7.94l-8.85,5.8c-2.24,1.43-3.56,4.17-3.97,8.24c0,1.22,0.71,1.83,2.14,1.83
		c0.81-0.2,1.83-0.25,3.05-0.15c1.22,0.11,2.24,0.15,3.05,0.15c0.61,0.21,1.42,0.26,2.44,0.15c1.02-0.1,1.83-0.15,2.44-0.15
		c3.86-0.61,8.14-2.14,12.82-4.58l3.66-1.83c1.22-0.61,1.93-0.31,2.14,0.92c0.41,1.22,0.61,2.14,0.61,2.75
		c0,1.02-0.41,2.55-1.22,4.58c-1.22,2.85-2.44,4.99-3.66,6.41l-10.38,12.82c-1.22,1.63-3.16,3.05-5.8,4.27
		c-10.18,4.48-19.14,8.55-26.87,12.21l-8.55,3.97L44.98,520.4c-8.55,3.87-15.67,8.04-21.37,12.52c-5.5,4.07-9.67,8.35-12.52,12.82
		c-2.64,3.87-3.97,8.14-3.97,12.82c0,2.44,0.36,4.23,1.07,5.34c0.72,1.12,2.09,1.78,4.12,1.99c1.43,0,3.36,0.21,5.8,0.61
		c1.83,0,3.26-0.1,4.27-0.31c5.3-0.61,10.18-2.14,14.66-4.58c5.29-2.44,13.23-6.31,23.82-11.6c2.44-1.22,4.27-2.24,5.5-3.05
		c16.69-9.77,31.04-20.56,43.05-32.37c9.77-8.95,17.4-17.71,22.9-26.26c1.42-1.83,2.85-2.95,4.27-3.36l2.44-1.22l16.18-7.63
		c4.27-2.02,8.97-4.32,14.08-6.89c-0.34,1.36-0.67,2.73-0.95,4.14c-0.41,1.83-0.61,4.17-0.61,7.02c-0.2,1.43,0.21,2.85,1.22,4.27
		c1.02,1.43,2.34,2.44,3.97,3.05c0.81,0.21,2.03,0.51,3.66,0.92c1.63,0.41,3.05,0.61,4.27,0.61l3.97,0.61
		c6.72,0.61,13.02-0.61,18.93-3.66c4.68-2.44,10.28-6.15,16.79-11.14c0.23-0.17,0.43-0.34,0.65-0.51c-0.02,0.52-0.04,1.05-0.04,1.58
		c0,5.09,2.75,8.14,8.24,9.16h2.14l5.5,0.31c0.61,0,1.53,0.05,2.75,0.15c1.22,0.11,2.24,0.05,3.05-0.15
		c5.7-0.81,9.77-2.03,12.21-3.66c1.02-1.02,1.73-1.42,2.14-1.22c0.61,0.21,0.86,0.56,0.76,1.07c-0.1,0.51-0.15,0.97-0.15,1.37
		c0.2,1.63,1.02,2.44,2.44,2.44l4.58,0.61c1.42,0,2.6-0.3,3.51-0.92c0.92-0.61,2.08-1.73,3.51-3.36c4.27-4.68,9.51-9.36,15.72-14.04
		c0.99-0.75,1.91-1.43,2.78-2.08c-1.23,4.05-2.22,8.81-2.94,14.29c-0.21,1.02-0.31,2.44-0.31,4.28c0.2,2.44,1.12,4.48,2.75,6.11
		c1.63,1.63,3.76,2.55,6.41,2.75l4.58,0.3c5.9,0.41,10.38-1.02,13.43-4.27l11.91-12.21c0.81-0.81,1.42-1.32,1.83-1.53
		c0-0.2,0.2-0.2,0.61,0l0.31,1.22c-0.21,0.82-0.31,2.14-0.31,3.97c0,3.66,0.92,6.41,2.75,8.24c2.64,2.44,5.39,3.66,8.24,3.66
		c3.05,0,6.31-1.22,9.77-3.66c2.64-2.24,5.29-4.58,7.94-7.02c0.48-0.46,0.97-0.93,1.45-1.42c-0.15,1.44-0.23,2.83-0.23,4.16
		c0,1.83,0.41,4.58,1.22,8.24c1.42,4.48,4.68,7.43,9.77,8.85c2.44,0.61,4.78,0.92,7.02,0.92c4.07,0,8.04-0.92,11.91-2.75l1.83-0.92
		c0.61-0.41,1.73-1.12,3.36-2.14c1.63-1.02,3.25-2.14,4.88-3.36c5.9-5.29,9.46-8.85,10.69-10.69c0.71-0.71,2.09-2.49,4.09-5.3
		c2.1,1.06,4.09,1.81,5.98,2.25c3.25,0.41,5.5,0.61,6.72,0.61c2.44,0,4.68-0.31,6.72-0.92c0.41-0.41,0.61-0.41,0.61,0
		c0.41,0.21,0.41,0.51,0,0.92l-3.05,6.11c-3.05,5.5-5.7,10.59-7.94,15.27c-2.04,4.48-5.09,8.65-9.16,12.52
		c-6.51,6.11-12.82,12.42-18.93,18.93l-9.46,9.47c-6.51,6.52-11.91,13.03-16.18,19.54c-4.68,6.72-7.63,13.74-8.85,21.07
		c-0.2,0.82-0.31,2.14-0.31,3.97c0,2.24,0.41,4.27,1.22,6.11c1.63,3.46,4.17,5.29,7.63,5.5c0.82,0.21,2.04,0.31,3.66,0.31
		c3.05,0,6.21-0.81,9.47-2.44c8.35-3.86,15.17-9.05,20.46-15.57l5.8-7.33l14.66-21.68c7.94-12.21,15.47-26.36,22.59-42.44
		c2.85-6.11,5.7-13.33,8.55-21.68c5.29-4.27,8.44-6.72,9.47-7.33l18.32-11.3l6.72-2.75c2.44-1.42,4.27-2.95,5.5-4.58
		C493.9,461.27,494,460.66,493.8,460.25z M197.94,453.69c1.22-2.95,2.64-5.44,4.27-7.48c0.41-0.2,0.96-0.46,1.68-0.76
		c0.71-0.31,1.27-0.46,1.68-0.46c0.2-0.2,0.51-0.25,0.92-0.15c0.41,0.1,0.71,0.15,0.92,0.15c0.2,0,0.2,0.31,0,0.92
		c-0.21,0.61-0.31,1.02-0.31,1.22c0,0.61-0.31,1.53-0.92,2.75c-0.82,2.44-2.04,4.43-3.66,5.95c-1.63,1.53-3.16,2.6-4.58,3.21
		c-1.43,0.61-2.34,0.92-2.75,0.92C195.8,458.72,196.72,456.64,197.94,453.69z M102.38,502.08l-6.41,5.8
		c-5.7,4.68-11.55,9.46-17.56,14.35c-6.01,4.88-11.65,9.06-16.95,12.52c-11.4,7.53-22.9,13.94-34.5,19.24
		c-1.63,0.82-2.85,1.33-3.66,1.53c-0.2,0.21-0.41,0.26-0.61,0.15c-0.2-0.1-0.41-0.15-0.61-0.15v-1.22c1.22-3.05,3.46-6.21,6.72-9.47
		c3.66-3.86,8.35-7.83,14.04-11.91c7.73-5.5,17.71-11.3,29.92-17.4l28.09-13.74l1.53-0.61h0.31c0.2,0,0.31,0.1,0.31,0.3
		L102.38,502.08z M412.58,521.32l-1.83,4.58l-15.88,39.39c-2.64,6.52-5.19,11.71-7.63,15.57c-2.85,4.07-5.19,6.92-7.02,8.55
		c-1.83,1.83-4.38,3.46-7.63,4.89c-1.63,0.41-2.85,0.46-3.66,0.15c-0.81-0.31-1.42-1.17-1.83-2.6l-1.22-4.88
		c0.61-7.12,2.44-13.63,5.5-19.54c2.85-5.5,7.02-11.5,12.52-18.01c4.07-4.68,10.49-11.4,19.24-20.15l7.63-7.33l1.22-1.22h0.61
		C412.78,520.91,412.78,521.12,412.58,521.32z"/>
</g>
<g>
	<path class="st15" d="M573.18,434.6l5.5-12.52l7.63-18.01c1.63-3.25,3.25-7.33,4.88-12.21l1.83-7.33c0.61-3.46-1.02-6.61-4.88-9.46
		c-0.82-0.61-1.83-0.92-3.05-0.92h-0.92c-1.22,0.41-2.24,0.61-3.05,0.61h-0.61c-0.41-0.81-1.02-0.81-1.83,0
		c-2.04,2.44-3.56,4.79-4.58,7.02c-1.22,2.24-2.85,5.8-4.89,10.69c-4.48,9.37-7.74,16.39-9.77,21.07
		c-1.43,3.05-4.88,11.1-10.38,24.12c-2.44,5.3-6.31,13.23-11.6,23.82l-14.66,30.84c-1.42,2.65-2.24,5.29-2.44,7.94
		c0,1.43-0.41,3.16-1.22,5.19l-3.97,8.55c-0.61,1.22-0.92,2.95-0.92,5.19c0,0.21,0.11,0.41,0.31,0.61c0.21,0.21,0.41,0.3,0.61,0.3
		l6.11-0.3c3.26-0.41,5.8-1.73,7.63-3.97c1.02-1.42,2.85-3.76,5.5-7.02l3.36-3.66c2.03-1.42,3.97-3.86,5.8-7.33l6.41-13.43
		l11.3-23.82C565.74,451.6,569.71,442.95,573.18,434.6z"/>
	<path class="st15" d="M519.75,375.98c4.48-0.61,12.31-1.63,23.51-3.05c15.06-2.03,26.36-3.66,33.89-4.88
		c19.74-3.25,36.33-6.61,49.77-10.08l24.43-6.11c5.7-1.42,10.38-2.75,14.04-3.97c1.02-0.2,1.83-0.5,2.44-0.92
		c0.61-0.41,1.22-0.71,1.83-0.92c0.81-0.61,0.92-1.42,0.31-2.44c-0.61-0.41-1.33-0.81-2.14-1.22c-2.44,0-4.27,0.21-5.5,0.61
		c-4.88,1.43-8.14,2.24-9.77,2.44c-8.14,1.63-14.35,2.75-18.62,3.36c-5.5,0.82-11.1,1.43-16.79,1.83l-10.69,0.61
		c-5.09,0.41-13.23,1.63-24.43,3.66l-23.82,4.28l-10.69,1.53c-9.57,1.43-16.18,2.44-19.85,3.05c-0.61,0-4.68,0.92-12.21,2.75
		l-5.8,2.44c-1.83,1.02-2.75,3.05-2.75,6.11c0.21,0.41,0.41,0.61,0.61,0.61c3.26,0.41,5.7,0.61,7.33,0.61L519.75,375.98z"/>
	<path class="st15" d="M609.66,427.73c0.5-1.73,0.76-3.1,0.76-4.12c-0.21-2.24-1.22-3.97-3.05-5.19c-0.61-0.41-1.53-1.02-2.75-1.83
		c-1.22-0.81-2.34-1.32-3.36-1.53l-2.75-1.83c-1.02-0.61-1.94-0.92-2.75-0.92c-0.61,0-1.33,0.21-2.14,0.61
		c-1.22,0.61-2.55,2.44-3.97,5.5c-0.21,0.61-0.21,1.22,0,1.83c0.61,0.82,0.92,1.73,0.92,2.75v1.22c0,1.22,0.5,2.14,1.53,2.75
		l6.41,3.97l7.02,2.14c0.41,0,0.71-0.1,0.92-0.3c0.61-0.61,0.81-0.92,0.61-0.92C608.29,430.84,609.15,429.47,609.66,427.73z"/>
	<path class="st15" d="M719.12,457.66c-0.61-0.51-1.33-0.76-2.14-0.76h-1.22c-4.69,0.82-12.01,4.58-21.98,11.3
		c-0.61,0.21-1.02,0-1.22-0.61l-3.36-11.3c-0.82-3.46-3.46-7.63-7.94-12.52c-0.21-0.2-0.92-0.92-2.14-2.14
		c-1.22-1.22-2.55-1.83-3.97-1.83c-0.82,0-1.53,0.1-2.14,0.3h-2.44c-0.21,0-0.56,0-1.07,0s-0.96,0.21-1.37,0.61
		c-0.2,0.21-0.41,0.46-0.61,0.76c-0.2,0.31-0.41,0.76-0.61,1.37c-0.2,1.02,0,3.41,0.61,7.18c0.61,3.77,1.12,6.56,1.53,8.4
		c0.47,1.42,0.92,2.85,1.36,4.27l-9.6,7.03l-1.53,0.92h-0.31c-0.21-0.2-0.21-0.41,0-0.61l0.92-3.66c0.2-1.83-0.31-3.76-1.53-5.8
		c-1.83-1.83-3.77-2.75-5.8-2.75c-2.65-0.2-5.3,0.31-7.94,1.53c-4.07,1.83-8.24,4.58-12.52,8.24c-1.22,1.43-3.26,3.36-6.11,5.8
		c-0.21-0.81-0.1-1.63,0.31-2.44c0.81-4.07,1.22-7.63,1.22-10.69c0-1.63-0.51-2.9-1.53-3.82c-1.02-0.92-2.24-1.37-3.66-1.37h-0.61
		l-0.61,0.3c-1.02-0.41-1.94,0.11-2.75,1.53l-1.57,3.14c-0.16-0.15-0.34-0.28-0.56-0.4c-0.61-0.41-1.27-0.3-1.99,0.31
		c-0.71,0.61-1.17,1.02-1.37,1.22c-3.05,5.09-7.38,10.94-12.98,17.56c-5.6,6.62-10.13,10.43-13.59,11.45
		c-2.04,0.41-3.05,0-3.05-1.22c0.41-3.25,1.32-6.51,2.75-9.77l7.94-19.54c0.81-1.63,1.83-4.07,3.05-7.33
		c0.61-1.63,0.92-2.95,0.92-3.97c0-1.42-0.46-2.75-1.37-3.97c-0.92-1.22-1.98-2.54-3.21-3.97c-0.82-0.81-1.94-1.22-3.36-1.22
		c-1.43,0.41-2.34,0.51-2.75,0.31c-1.22-0.81-2.44-0.51-3.66,0.92l-1.83,2.44c-4.07,5.7-6.11,8.75-6.11,9.16
		c-2.65,4.89-4.68,11.4-6.11,19.54c-0.21,1.22-0.3,2.95-0.3,5.19c0,2.65,0.3,5.19,0.92,7.63c0.81,3.66,2.49,6.52,5.04,8.55
		c2.54,2.04,5.34,3.05,8.4,3.05c1.42,0,2.54-0.1,3.36-0.3c3.25-1.02,6.41-3.05,9.46-6.11c1.02-1.02,2.18-2.29,3.51-3.82
		c1.32-1.53,2.29-2.7,2.9-3.51l10.56-14.47c-0.73,1.61-1.49,3.26-2.32,5l-2.75,6.11c-0.61,1.22-1.32,2.65-2.14,4.27
		c-0.81,1.63-1.63,3.56-2.44,5.8c-1.22,2.85-2.85,7.13-4.88,12.82l-2.44,6.41c-0.2,0.41-0.46,1.07-0.76,1.98
		c-0.31,0.92-0.66,1.58-1.07,1.98c-0.81,1.02-1.63,2.75-2.44,5.19c-0.81,2.44-1.53,4.28-2.14,5.5c-3.66,8.55-7.94,16.79-12.82,24.73
		l-9.16,15.88l-7.33,13.74c-2.44,3.87-4.27,8.14-5.5,12.82c-0.41,2.04-0.61,3.66-0.61,4.89c0,1.63,0.3,3.26,0.92,4.88
		c0.82,2.24,2.24,3.36,4.27,3.36c2.44,0,4.27-0.1,5.5-0.31c1.22,0,2.65-0.31,4.27-0.92c1.63-0.61,2.65-1.02,3.05-1.22
		c0.61-0.2,1.33-0.71,2.14-1.53l3.97-4.27c3.05-3.86,6.31-9.57,9.77-17.1c2.65-4.88,5.19-11.09,7.63-18.62l16.18-46.1
		c1.02-3.05,2.44-6.31,4.27-9.77l5.5-9.46c4.88-8.55,9.67-15.37,14.35-20.46c4.28-4.27,8.04-7.53,11.3-9.77
		c1.02-0.81,2.24-1.22,3.66-1.22c0.61,0,1.12,0.26,1.53,0.76c0.41,0.51,0.61,1.17,0.61,1.98c0,1.22-0.1,2.04-0.31,2.44l-2.44,4.89
		c-2.85,3.66-4.68,5.91-5.5,6.72l-10.08,10.08l-4.27,4.58c-0.61,0.41-0.92,1.43-0.92,3.05c0,0.21,0.2,0.41,0.61,0.61
		c3.25,0.41,5.8-0.2,7.63-1.83l8.55-7.02l25.31-20.25c0.93,3.39,1.75,6.78,2.47,10.17c0.41,1.02,0.51,1.68,0.31,1.98
		c-0.21,0.31-0.72,0.76-1.53,1.37l-1.22,0.92l-14.35,9.47l-3.66,3.36c-1.42,1.43-2.14,3.16-2.14,5.19c0,1.02,0.1,1.83,0.3,2.44
		c0.82,1.83,2.65,3.16,5.5,3.97h0.31c1.22,0.21,2.95,0.3,5.19,0.3c6.31,0,12.01-1.53,17.1-4.58c6.11-3.66,9.87-8.96,11.3-15.88
		c1.02-4.07,1.53-7.73,1.53-10.99c0-1.02,0.51-1.83,1.53-2.44c2.44-1.63,6.15-3.76,11.14-6.41c4.99-2.64,8.9-4.38,11.76-5.19
		c1.63-0.2,2.44-1.12,2.44-2.75C720.03,458.72,719.73,458.17,719.12,457.66z M579.58,553.99L573.17,572l-2.14,6.11
		c-2.44,6.52-4.58,11.1-6.41,13.74c-0.61,1.02-1.63,2.24-3.05,3.66c0,0.21-0.2,0.31-0.61,0.31c-0.41-0.41-0.61-0.71-0.61-0.92
		c0.21-4.27,1.33-8.55,3.36-12.82l1.22-2.75l13.13-24.43c0.82-1.22,1.43-1.93,1.83-2.14C579.89,553.38,579.79,553.79,579.58,553.99z
		 M675.76,487.12c0,1.02-0.21,2.14-0.61,3.36c-1.43,4.48-4.38,8.14-8.85,10.99c-2.03,1.43-4.27,2.14-6.72,2.14
		c-1.83,0-2.75-0.71-2.75-2.14l0.31-1.22c0-0.61,0.3-1.22,0.92-1.83l2.75-2.75c2.44-2.03,7.02-5.09,13.74-9.16
		c0.2-0.2,0.51-0.31,0.92-0.31C675.86,486.62,675.96,486.92,675.76,487.12z"/>
</g>
</svg>
