<?xml version="1.0" encoding="utf-8"?>
<!-- Generator: Adobe Illustrator 24.1.2, SVG Export Plug-In . SVG Version: 6.00 Build 0)  -->
<svg version="1.1" id="Calque_1" xmlns="http://www.w3.org/2000/svg" xmlns:xlink="http://www.w3.org/1999/xlink" width="258" height="157"
	 viewBox="0 0 258 157" style="enable-background:new 0 0 258 157;" xml:space="preserve">
<style type="text/css">
	.st0{fill:#FF5B00;}
	.st1{fill:#FFFFFF;}
</style>
<polygon class="st0" points="91.3,9 32,9 18,9 18,23 18,82.3 32,82.3 32,23 91.3,23 "/>
<polygon class="st0" points="229.7,74.8 229.7,132.7 163.4,132.7 163.4,146.7 229.7,146.7 229.7,146.8 243.7,146.8 243.7,74.8 "/>
<g>
	<path class="st1" d="M78.8,61.9c-0.1,0-0.1-0.1-0.1-0.2l0.1-22.3c0-0.1,0-0.1,0.1-0.1h6.2c1.2,0,2.3,0.3,3.3,0.9
		c1,0.6,1.7,1.4,2.3,2.4c0.6,1,0.8,2,0.8,3.2c0,0.9-0.2,1.8-0.6,2.6c-0.4,0.8-0.9,1.4-1.5,1.9c0.6,0.6,1.1,1.4,1.5,2.2
		c0.3,0.8,0.5,1.7,0.5,2.6c0,1.3-0.3,2.4-0.9,3.4c-0.6,1-1.4,1.9-2.4,2.5c-1,0.6-2.2,0.9-3.4,0.9H78.8z M82.6,57.9h2
		c0.8,0,1.4-0.3,2-0.9c0.6-0.6,0.8-1.2,0.8-2s-0.3-1.4-0.8-2c-0.6-0.6-1.2-0.8-2-0.8h-2L82.6,57.9z M82.6,48.3h2.5
		c0.8,0,1.4-0.3,1.8-0.8c0.5-0.5,0.7-1.1,0.7-1.7c0-0.7-0.2-1.3-0.7-1.8c-0.5-0.5-1.1-0.8-1.8-0.8h-2.5V48.3z"/>
	<path class="st1" d="M97.8,61.9c-0.1,0-0.1-0.1-0.1-0.2l0-22.3c0-0.1,0-0.1,0.1-0.1h10.4c0.1,0,0.1,0.1,0.1,0.2v3.6
		c0,0.1,0,0.1-0.1,0.1h-6.6v5.1h6.6c0.1,0,0.1,0,0.1,0.1l0,3.7c0,0.1,0,0.1-0.1,0.1h-6.7v5.7h6.7c0.1,0,0.1,0.1,0.1,0.2v3.7
		c0,0.1,0,0.1-0.1,0.1H97.8z"/>
	<path class="st1" d="M113.8,61.7l4-22.3c0-0.1,0.1-0.1,0.2-0.1h4.7c0.1,0,0.1,0,0.2,0.1l3.9,22.3c0,0.1,0,0.2-0.1,0.2H123
		c-0.1,0-0.1-0.1-0.2-0.2l-0.4-2.4H118l-0.4,2.4c0,0.1-0.1,0.2-0.2,0.2h-3.6C113.8,61.9,113.8,61.8,113.8,61.7z M118.7,55.9h3.1
		l-1.3-9.1l-0.2-1.2l-0.1,1.2L118.7,55.9z"/>
	<path class="st1" d="M138.2,62.2c-1.1,0-2.2-0.3-3.2-0.9c-1-0.6-1.7-1.4-2.3-2.4c-0.6-1-0.9-2.1-0.9-3.3l0.1-16.2
		c0-0.1,0-0.1,0.1-0.1h3.6c0.1,0,0.1,0,0.1,0.1v16.2c0,0.7,0.2,1.4,0.7,1.9c0.5,0.5,1,0.8,1.7,0.8c0.7,0,1.3-0.3,1.7-0.8
		c0.5-0.5,0.7-1.1,0.7-1.9V39.4c0-0.1,0-0.1,0.1-0.1h3.6c0.1,0,0.1,0,0.1,0.1l0.1,16.2c0,1.2-0.3,2.3-0.9,3.3
		c-0.6,1-1.3,1.8-2.3,2.4C140.5,61.9,139.4,62.2,138.2,62.2z"/>
	<path class="st1" d="M154.4,61.9c-0.1,0-0.1-0.1-0.1-0.2V43.2H150c-0.1,0-0.2-0.1-0.2-0.2l0-3.6c0-0.1,0-0.1,0.1-0.1h12.3
		c0.1,0,0.2,0,0.2,0.1v3.6c0,0.1,0,0.2-0.1,0.2h-4.2l0,18.5c0,0.1,0,0.2-0.1,0.2H154.4z"/>
	<path class="st1" d="M171.1,61.9c-0.1,0-0.1,0-0.1-0.1l0-9.2l-4.3-13.1c0-0.1,0-0.1,0.1-0.1h3.6c0.1,0,0.2,0,0.2,0.1l2.4,8.7
		l2.4-8.7c0-0.1,0.1-0.1,0.2-0.1h3.6c0.1,0,0.1,0,0.1,0.1l-4.4,13l0,9.3c0,0.1,0,0.1-0.1,0.1H171.1z"/>
</g>
<g>
	<path class="st1" d="M89,117c-0.2,0-0.3-0.1-0.3-0.4V76.5h-9.1c-0.2,0-0.4-0.1-0.4-0.4l0.1-7.9c0-0.2,0.1-0.3,0.3-0.3h26.7
		c0.2,0,0.4,0.1,0.4,0.3v7.9c0,0.2-0.1,0.4-0.3,0.4h-9.2l0.1,40.1c0,0.2-0.1,0.4-0.3,0.4H89z"/>
	<path class="st1" d="M110.4,117c-0.2,0-0.4-0.1-0.4-0.4l0.1-48.3c0-0.2,0.1-0.3,0.3-0.3h7.9c0.2,0,0.3,0.1,0.3,0.3l0.1,48.3
		c0,0.2-0.1,0.4-0.3,0.4H110.4z"/>
	<path class="st1" d="M125.2,117c-0.2,0-0.4-0.1-0.4-0.4l0.1-48.3c0-0.2,0.1-0.3,0.3-0.3h13.5c4.3,0,7.7,1.3,10.2,3.9
		c2.5,2.6,3.8,6.2,3.8,10.7c0,3.3-0.7,6.2-2,8.7c-1.3,2.4-3,4.3-5.1,5.6c-2.1,1.3-4.4,2-6.9,2h-5.3v17.7c0,0.2-0.1,0.4-0.4,0.4
		H125.2z M133.5,90.4h5.3c1.5,0,2.8-0.7,3.9-2.1c1.1-1.4,1.7-3.3,1.7-5.6c0-1.8-0.5-3.3-1.5-4.5c-1-1.2-2.3-1.8-4.1-1.8l-5.3,0.1
		V90.4z"/>
	<path class="st1" d="M169.6,117.7c-2.5,0-4.8-0.6-6.9-1.9c-2.1-1.3-3.8-3-5-5.1c-1.2-2.1-1.9-4.5-1.9-7.1v-3.2
		c0-0.2,0.1-0.4,0.4-0.4h7.9c0.2,0,0.3,0.1,0.3,0.4v3.2c0,1.5,0.5,2.9,1.5,4c1,1.1,2.3,1.7,3.7,1.7c1.5,0,2.7-0.6,3.7-1.7
		c1-1.1,1.5-2.4,1.5-3.9c0-1.7-1.1-3.2-3.4-4.5c-0.8-0.4-1.9-1.1-3.5-2c-1.6-0.9-3.1-1.7-4.5-2.5c-2.6-1.5-4.5-3.4-5.7-5.7
		c-1.2-2.3-1.9-4.8-1.9-7.7c0-2.6,0.6-5,1.9-7.1c1.3-2.1,2.9-3.7,5-5c2.1-1.2,4.4-1.8,6.8-1.8c2.5,0,4.8,0.6,6.9,1.9
		c2.1,1.2,3.8,2.9,5,5c1.2,2.1,1.9,4.4,1.9,7v5.8c0,0.2-0.1,0.3-0.3,0.3h-7.9c-0.2,0-0.3-0.1-0.3-0.3l-0.1-5.8c0-1.6-0.5-3-1.5-4
		c-1-1-2.3-1.5-3.7-1.5c-1.5,0-2.7,0.6-3.7,1.7c-1,1.1-1.5,2.4-1.5,3.9c0,1.5,0.3,2.8,1,3.9c0.7,1,1.9,2,3.6,3
		c0.2,0.1,0.7,0.4,1.4,0.7c0.7,0.4,1.4,0.8,2.2,1.2c0.8,0.4,1.5,0.8,2.1,1.2c0.6,0.3,1,0.5,1.2,0.6c2.3,1.3,4.2,2.9,5.6,4.8
		c1.4,1.9,2,4.2,2,7c0,2.7-0.6,5.1-1.9,7.2c-1.2,2.1-2.9,3.8-5,5.1C174.4,117.1,172.1,117.7,169.6,117.7z"/>
</g>
</svg>
